HIERARCHY
ROOT Root
{
  OFFSET 0.0 0.0 0.0
  CHANNELS 6 Xposition Yposition Zposition Zrotation Yrotation Xrotation
  JOINT Hips
  {
    OFFSET 0.0 100.0 0.0
    CHANNELS 6 Xposition Yposition Zposition Zrotation Yrotation Xrotation
    JOINT Spine1
    {
      OFFSET 5.003913 -0.037094 -0.013727
      CHANNELS 3 Zrotation Yrotation Xrotation
      JOINT Spine2
      {
        OFFSET 7.125363 -1e-06 0.0
        CHANNELS 3 Zrotation Yrotation Xrotation
        JOINT Chest
        {
          OFFSET 7.594027 1e-06 0.0
          CHANNELS 3 Zrotation Yrotation Xrotation
          JOINT Neck1
          {
            OFFSET 26.313086 -0.460272 -0.181672
            CHANNELS 3 Zrotation Yrotation Xrotation
            JOINT Neck2
            {
              OFFSET 8.045911 0.0 0.0
              CHANNELS 3 Zrotation Yrotation Xrotation
              JOINT Head
              {
                OFFSET 6.432774 0.0 0.0
                CHANNELS 3 Zrotation Yrotation Xrotation
                JOINT HeadEnd
                {
                  OFFSET 16.169773 0.06451 0.00362
                  CHANNELS 3 Zrotation Yrotation Xrotation
                }
                JOINT Jaw
                {
                  OFFSET 0.108741 3.12938 0.002639
                  CHANNELS 3 Zrotation Yrotation Xrotation
                }
                JOINT LeftEye
                {
                  OFFSET 4.45173 8.166359 3.206392
                  CHANNELS 3 Zrotation Yrotation Xrotation
                }
                JOINT RightEye
                {
                  OFFSET 4.436895 8.135758 -3.222429
                  CHANNELS 3 Zrotation Yrotation Xrotation
                }
              }
            }
          }
          JOINT LeftShoulder
          {
            OFFSET 23.218927 5.195579 1.621656
            CHANNELS 3 Zrotation Yrotation Xrotation
            JOINT LeftArm
            {
              OFFSET 15.902118 2e-06 -2e-06
              CHANNELS 3 Zrotation Yrotation Xrotation
              JOINT LeftForeArm
              {
                OFFSET 28.739307 0.0 -1e-06
                CHANNELS 3 Zrotation Yrotation Xrotation
                JOINT LeftHand
                {
                  OFFSET 27.093981 -4e-06 0.0
                  CHANNELS 3 Zrotation Yrotation Xrotation
                  JOINT LeftHandThumb1
                  {
                    OFFSET 2.276781 3.380274 0.83384
                    CHANNELS 3 Zrotation Yrotation Xrotation
                    JOINT LeftHandThumb2
                    {
                      OFFSET 4.705309 -1e-06 -1e-06
                      CHANNELS 3 Zrotation Yrotation Xrotation
                      JOINT LeftHandThumb3
                      {
                        OFFSET 2.798515 0.0 3e-06
                        CHANNELS 3 Zrotation Yrotation Xrotation
                        JOINT LeftHandThumbEnd
                        {
                          OFFSET 3.180793 4e-06 -4e-06
                          CHANNELS 3 Zrotation Yrotation Xrotation
                        }
                      }
                    }
                  }
                  JOINT LeftHandIndex1
                  {
                    OFFSET 3.247786 2.352677 0.137192
                    CHANNELS 3 Zrotation Yrotation Xrotation
                    JOINT LeftHandIndex2
                    {
                      OFFSET 6.367095 1e-06 0.0
                      CHANNELS 3 Zrotation Yrotation Xrotation
                      JOINT LeftHandIndex3
                      {
                        OFFSET 3.662364 0.0 0.0
                        CHANNELS 3 Zrotation Yrotation Xrotation
                        JOINT LeftHandIndex4
                        {
                          OFFSET 2.329242 4e-06 -4e-06
                          CHANNELS 3 Zrotation Yrotation Xrotation
                          JOINT LeftHandIndexEnd
                          {
                            OFFSET 2.767823 1e-06 0.0
                            CHANNELS 3 Zrotation Yrotation Xrotation
                          }
                        }
                      }
                    }
                  }
                  JOINT LeftHandMiddle1
                  {
                    OFFSET 3.163612 0.945023 -0.406112
                    CHANNELS 3 Zrotation Yrotation Xrotation
                    JOINT LeftHandMiddle2
                    {
                      OFFSET 6.276789 3e-06 0.0
                      CHANNELS 3 Zrotation Yrotation Xrotation
                      JOINT LeftHandMiddle3
                      {
                        OFFSET 4.35652 -1e-06 4e-06
                        CHANNELS 3 Zrotation Yrotation Xrotation
                        JOINT LeftHandMiddle4
                        {
                          OFFSET 2.996877 0.0 8e-06
                          CHANNELS 3 Zrotation Yrotation Xrotation
                          JOINT LeftHandMiddleEnd
                          {
                            OFFSET 2.323256 3e-06 -4e-06
                            CHANNELS 3 Zrotation Yrotation Xrotation
                          }
                        }
                      }
                    }
                  }
                  JOINT LeftHandRing1
                  {
                    OFFSET 2.882606 -0.309162 0.107445
                    CHANNELS 3 Zrotation Yrotation Xrotation
                    JOINT LeftHandRing2
                    {
                      OFFSET 6.033198 0.0 4e-06
                      CHANNELS 3 Zrotation Yrotation Xrotation
                      JOINT LeftHandRing3
                      {
                        OFFSET 4.350578 3e-06 0.0
                        CHANNELS 3 Zrotation Yrotation Xrotation
                        JOINT LeftHandRing4
                        {
                          OFFSET 2.651321 2e-06 -7e-06
                          CHANNELS 3 Zrotation Yrotation Xrotation
                          JOINT LeftHandRingEnd
                          {
                            OFFSET 1.937663 1e-06 -4e-06
                            CHANNELS 3 Zrotation Yrotation Xrotation
                          }
                        }
                      }
                    }
                  }
                  JOINT LeftHandPinky1
                  {
                    OFFSET 2.865315 -1.525436 0.575687
                    CHANNELS 3 Zrotation Yrotation Xrotation
                    JOINT LeftHandPinky2
                    {
                      OFFSET 5.54936 1e-06 -8e-06
                      CHANNELS 3 Zrotation Yrotation Xrotation
                      JOINT LeftHandPinky3
                      {
                        OFFSET 3.070974 0.0 -4e-06
                        CHANNELS 3 Zrotation Yrotation Xrotation
                        JOINT LeftHandPinky4
                        {
                          OFFSET 1.549672 1e-06 0.0
                          CHANNELS 3 Zrotation Yrotation Xrotation
                          JOINT LeftHandPinkyEnd
                          {
                            OFFSET 1.952123 0.0 0.0
                            CHANNELS 3 Zrotation Yrotation Xrotation
                          }
                        }
                      }
                    }
                  }
                }
              }
            }
          }
          JOINT RightShoulder
          {
            OFFSET 23.161716 5.296122 -1.380114
            CHANNELS 3 Zrotation Yrotation Xrotation
            JOINT RightArm
            {
              OFFSET -16.027195 -2e-06 1.1e-05
              CHANNELS 3 Zrotation Yrotation Xrotation
              JOINT RightForeArm
              {
                OFFSET -28.736639 4e-06 2e-06
                CHANNELS 3 Zrotation Yrotation Xrotation
                JOINT RightHand
                {
                  OFFSET -27.133619 6e-06 0.0
                  CHANNELS 3 Zrotation Yrotation Xrotation
                  JOINT RightHandThumb1
                  {
                    OFFSET -2.274328 -3.351035 -0.83067
                    CHANNELS 3 Zrotation Yrotation Xrotation
                    JOINT RightHandThumb2
                    {
                      OFFSET -4.703594 -3e-06 2e-06
                      CHANNELS 3 Zrotation Yrotation Xrotation
                      JOINT RightHandThumb3
                      {
                        OFFSET -2.794935 -4e-06 -3e-06
                        CHANNELS 3 Zrotation Yrotation Xrotation
                        JOINT RightHandThumbEnd
                        {
                          OFFSET -3.183852 4e-06 1e-06
                          CHANNELS 3 Zrotation Yrotation Xrotation
                        }
                      }
                    }
                  }
                  JOINT RightHandIndex1
                  {
                    OFFSET -3.253496 -2.33755 -0.127667
                    CHANNELS 3 Zrotation Yrotation Xrotation
                    JOINT RightHandIndex2
                    {
                      OFFSET -6.344434 0.0 0.0
                      CHANNELS 3 Zrotation Yrotation Xrotation
                      JOINT RightHandIndex3
                      {
                        OFFSET -3.654871 0.0 -8e-06
                        CHANNELS 3 Zrotation Yrotation Xrotation
                        JOINT RightHandIndex4
                        {
                          OFFSET -2.327586 -1e-06 0.0
                          CHANNELS 3 Zrotation Yrotation Xrotation
                          JOINT RightHandIndexEnd
                          {
                            OFFSET -2.770001 3e-06 8e-06
                            CHANNELS 3 Zrotation Yrotation Xrotation
                          }
                        }
                      }
                    }
                  }
                  JOINT RightHandMiddle1
                  {
                    OFFSET -3.168223 -0.944764 0.411762
                    CHANNELS 3 Zrotation Yrotation Xrotation
                    JOINT RightHandMiddle2
                    {
                      OFFSET -6.266691 -1e-06 -4e-06
                      CHANNELS 3 Zrotation Yrotation Xrotation
                      JOINT RightHandMiddle3
                      {
                        OFFSET -4.348901 0.0 0.0
                        CHANNELS 3 Zrotation Yrotation Xrotation
                        JOINT RightHandMiddle4
                        {
                          OFFSET -3.00024 2e-06 -4e-06
                          CHANNELS 3 Zrotation Yrotation Xrotation
                          JOINT RightHandMiddleEnd
                          {
                            OFFSET -2.321477 -4e-06 -4e-06
                            CHANNELS 3 Zrotation Yrotation Xrotation
                          }
                        }
                      }
                    }
                  }
                  JOINT RightHandRing1
                  {
                    OFFSET -2.885654 0.293261 -0.119232
                    CHANNELS 3 Zrotation Yrotation Xrotation
                    JOINT RightHandRing2
                    {
                      OFFSET -6.032835 -1e-06 -4e-06
                      CHANNELS 3 Zrotation Yrotation Xrotation
                      JOINT RightHandRing3
                      {
                        OFFSET -4.33881 0.0 -4e-06
                        CHANNELS 3 Zrotation Yrotation Xrotation
                        JOINT RightHandRing4
                        {
                          OFFSET -2.654903 -4e-06 -4e-06
                          CHANNELS 3 Zrotation Yrotation Xrotation
                          JOINT RightHandRingEnd
                          {
                            OFFSET -1.935122 0.0 4e-06
                            CHANNELS 3 Zrotation Yrotation Xrotation
                          }
                        }
                      }
                    }
                  }
                  JOINT RightHandPinky1
                  {
                    OFFSET -2.866241 1.503904 -0.60527
                    CHANNELS 3 Zrotation Yrotation Xrotation
                    JOINT RightHandPinky2
                    {
                      OFFSET -5.553177 -2e-06 0.0
                      CHANNELS 3 Zrotation Yrotation Xrotation
                      JOINT RightHandPinky3
                      {
                        OFFSET -3.062664 -1e-06 -4e-06
                        CHANNELS 3 Zrotation Yrotation Xrotation
                        JOINT RightHandPinky4
                        {
                          OFFSET -1.546529 2e-06 4e-06
                          CHANNELS 3 Zrotation Yrotation Xrotation
                          JOINT RightHandPinkyEnd
                          {
                            OFFSET -1.952341 0.0 -4e-06
                            CHANNELS 3 Zrotation Yrotation Xrotation
                          }
                        }
                      }
                    }
                  }
                }
              }
            }
          }
        }
      }
    }
    JOINT LeftLeg
    {
      OFFSET -8.443107 2.567604 10.043214
      CHANNELS 3 Zrotation Yrotation Xrotation
      JOINT LeftShin
      {
        OFFSET 43.229198 1e-06 -1e-06
        CHANNELS 3 Zrotation Yrotation Xrotation
        JOINT LeftFoot
        {
          OFFSET 42.298611 1e-06 1e-06
          CHANNELS 3 Zrotation Yrotation Xrotation
          JOINT LeftToeBase
          {
            OFFSET 14.165858 1e-06 0.0
            CHANNELS 3 Zrotation Yrotation Xrotation
            JOINT LeftToeEnd
            {
              OFFSET 6.7141 -0.234461 0.0
              CHANNELS 3 Zrotation Yrotation Xrotation
            }
          }
        }
      }
    }
    JOINT RightLeg
    {
      OFFSET -8.303923 2.592729 -10.047278
      CHANNELS 3 Zrotation Yrotation Xrotation
      JOINT RightShin
      {
        OFFSET -43.369682 0.0 1e-06
        CHANNELS 3 Zrotation Yrotation Xrotation
        JOINT RightFoot
        {
          OFFSET -42.260784 4e-06 2e-06
          CHANNELS 3 Zrotation Yrotation Xrotation
          JOINT RightToeBase
          {
            OFFSET -14.222245 -2e-06 -1e-06
            CHANNELS 3 Zrotation Yrotation Xrotation
            JOINT RightToeEnd
            {
              OFFSET -6.660062 0.232574 -2e-06
              CHANNELS 3 Zrotation Yrotation Xrotation
            }
          }
        }
      }
    }
  }
}
MOTION
Frames: 4
Frame Time: 0.03333333333333333
0.0 0.0 0.0 0.0 -0.0 0.0 2.593152 100.148262 0.402641 90.700325 -0.134425 91.018044 -2.345013 0.588984 0.160391 -11.582935 -0.330872 0.018246 16.973001 -0.111603 -2.342464 16.125233 -2.865821 2.346522 -2.394364 -0.65779 -0.326623 -25.327362 -1.07475 -1.853286 6e-06 0.0 -0.0 -0.006987 0.020104 -0.017183 0.057487 0.084696 -0.011056 0.068544 -0.05435 -0.015111 -133.813705 -73.395103 150.938614 21.758223 -37.3755 -25.079504 63.066021 0.85901 -0.491744 -7.240409 17.052279 -71.690605 17.636627 -26.322733 52.41119 -19.466665 -14.395598 29.410393 -2e-06 -8.774821 -3e-06 16.695213 -16.573839 5.593733 -0.609776 -1.795655 -3.889329 -4.807087 -11.046812 -2.937852 8e-06 -20.976021 -1e-06 -5.019966 -25.033558 -4.031879 6e-06 1e-06 -1e-06 -10.634535 -5.686972 -3.565589 10.573278 -17.922953 -3.113901 6e-06 -13.821209 1e-06 -0.501774 -31.181501 -4.027012 -11.282447 -59.909695 7.204641 -13.982712 -7.150197 -2.875039 13.77273 -8.401493 -3.218245 0.347739 -34.211555 0.771655 -0.963028 -17.73337 2.621019 -1e-06 2e-06 1e-06 -17.346416 -20.095217 -4.201784 21.757557 -1.638378 3.866426 3e-06 -6.338823 1e-06 -1.697584 -22.591745 -6.194007 -0.0 -4e-06 -2e-06 57.5355 -80.698402 139.260605 32.512676 -51.085541 -37.406414 67.488068 -0.991997 0.562115 1.393707 15.40766 -71.696396 22.182112 -20.375887 49.933319 -16.701811 -16.743528 28.476522 -2e-06 -12.690601 1e-06 16.074694 -16.937569 2.985511 -0.105919 -1.513854 -4.275879 -5.039041 -5.612873 -2.953556 4e-06 -11.02052 -2e-06 -6.111298 -15.89533 -3.840473 -0.0 -0.0 0.0 -10.283369 -5.680285 -4.341836 11.028291 -11.302406 -2.372631 -1.384267 -14.23858 -6.320122 -0.625438 -26.924187 -3.827604 -4.85146 -51.173149 -2.502007 -13.708525 -7.363475 -3.720936 18.141148 -14.052739 -3.242676 7e-06 -18.787268 -1e-06 -0.429713 -8.456042 2.555504 0.0 -0.0 -0.0 -15.923536 -20.094482 -5.473582 30.419207 -7.190823 1.735925 3e-06 -8.162924 -1e-06 -1.8619 -22.861467 -6.167945 0.0 -1e-06 -1e-06 174.641891 -2.802087 -8.55025 14.102415 -0.009433 0.02663 -77.346146 -3.110393 -5.710391 -6.608343 1.606985 2.1164 -0.999999 0.0 -0.0 -4.377244 -6.287265 -9.47266 14.242634 -0.006507 0.071171 -77.940903 -2.072913 -7.018526 -6.607048 0.751444 1.656533 -1.000003 -0.0 0.0 
0.0 0.0 0.0 0.0 -0.0 0.0 2.607981 100.137482 0.403247 90.696541 -0.165369 91.001884 -2.342306 0.601087 0.16059 -11.592518 -0.312462 0.043595 16.962322 -0.118748 -2.35584 16.038172 -2.919064 2.320709 -2.385441 -0.661471 -0.322807 -25.471724 -1.058947 -1.877918 5e-06 0.0 -0.0 -0.010415 0.023265 -0.001569 0.0655 0.085754 0.003882 0.076644 -0.049082 0.001243 -133.890259 -73.382599 151.003387 21.811171 -37.394791 -25.174526 63.127716 0.819403 -0.435719 -7.405897 17.081385 -71.543396 17.636633 -26.322748 52.411217 -19.466665 -14.395602 29.410398 -0.0 -8.774825 -3e-06 16.724045 -16.59058 5.582458 -0.609777 -1.795658 -3.88933 -4.807091 -11.046813 -2.93785 6e-06 -20.976021 -1e-06 -5.01997 -25.033566 -4.031882 6e-06 1e-06 -1e-06 -10.634538 -5.686977 -3.565589 10.573278 -17.922955 -3.1139 4e-06 -13.821213 0.0 -0.501776 -31.181511 -4.027016 -11.304216 -59.948448 7.217218 -13.982718 -7.150202 -2.875041 13.772733 -8.401497 -3.218244 0.347737 -34.211559 0.771654 -0.963027 -17.733376 2.62102 -1e-06 2e-06 1e-06 -17.346422 -20.095221 -4.201784 21.757563 -1.638376 3.866429 2e-06 -6.338824 2e-06 -1.697587 -22.591747 -6.194009 0.0 -4e-06 -3e-06 57.926998 -80.768433 138.92601 32.499599 -51.186291 -37.307457 67.662346 -0.975896 0.590265 1.216833 15.429678 -71.415497 22.182116 -20.375891 49.933315 -16.701815 -16.743526 28.47653 -5e-06 -12.690598 1e-06 16.042412 -16.914108 2.990801 -0.105921 -1.513856 -4.275884 -5.03904 -5.612869 -2.953555 4e-06 -11.020521 -1e-06 -6.111296 -15.895332 -3.840473 0.0 -0.0 0.0 -10.283371 -5.680289 -4.341841 11.028296 -11.302407 -2.372636 -1.384265 -14.238581 -6.320122 -0.625435 -26.924191 -3.827598 -4.843798 -51.191475 -2.507475 -13.708524 -7.363473 -3.720942 18.141148 -14.052739 -3.242675 7e-06 -18.787266 -0.0 -0.42971 -8.456043 2.555505 0.0 -0.0 -2e-06 -15.923534 -20.094482 -5.473585 30.41921 -7.190828 1.735926 5e-06 -8.162925 -2e-06 -1.861899 -22.861465 -6.167943 1e-06 -2e-06 -1e-06 174.547821 -2.815493 -8.558521 14.252712 -0.015075 0.028825 -77.424713 -3.117621 -5.708984 -6.593608 1.610856 2.115139 -0.999999 -0.0 -0.0 -4.457598 -6.306983 -9.471942 14.364481 -0.00353 0.073787 -78.005287 -2.046528 -7.012622 -6.615158 0.748781 1.651902 -1.000002 0.0 -0.0 
0.0 0.0 0.0 0.0 -0.0 0.0 2.617475 100.13002 0.407724 90.690178 -0.213674 91.003235 -2.330239 0.617493 0.146362 -11.609645 -0.295808 0.058323 16.935421 -0.131716 -2.365479 15.950408 -2.943918 2.309368 -2.383855 -0.670578 -0.312962 -25.654301 -1.075706 -1.883466 6e-06 0.0 -0.0 -0.012691 0.025422 0.009035 0.064279 0.084995 0.012424 0.074165 -0.043848 0.013619 -133.856598 -73.386368 150.965302 21.863489 -37.452396 -25.362617 63.142273 0.777832 -0.391315 -7.509033 17.170059 -71.369957 17.63662 -26.322727 52.41119 -19.466663 -14.395597 29.410395 1e-06 -8.774821 -1e-06 16.769831 -16.642824 5.557046 -0.609777 -1.795652 -3.889326 -4.807086 -11.04681 -2.937851 5e-06 -20.976015 0.0 -5.019969 -25.033556 -4.03188 6e-06 0.0 -3e-06 -10.634529 -5.686967 -3.565586 10.573271 -17.922955 -3.113903 3e-06 -13.821209 1e-06 -0.501777 -31.181501 -4.027014 -11.315173 -59.930664 7.222823 -13.982712 -7.150198 -2.875042 13.772729 -8.401489 -3.218241 0.347734 -34.211555 0.771653 -0.963029 -17.733372 2.621018 -1e-06 2e-06 1e-06 -17.346413 -20.095215 -4.201781 21.757555 -1.638374 3.866428 2e-06 -6.338822 1e-06 -1.697587 -22.591743 -6.194009 1e-06 -4e-06 -2e-06 58.329426 -80.812134 138.562241 32.433575 -51.319698 -37.167126 67.876846 -0.941146 0.621141 1.06539 15.472846 -71.142685 22.182114 -20.375895 49.933319 -16.701811 -16.743528 28.476522 -3e-06 -12.6906 1e-06 16.013248 -16.92359 2.975508 -0.105919 -1.513855 -4.275881 -5.039041 -5.612869 -2.953554 4e-06 -11.02052 -3e-06 -6.111296 -15.89533 -3.840473 0.0 -1e-06 0.0 -10.283369 -5.680288 -4.341836 11.028293 -11.302406 -2.372633 -1.384266 -14.23858 -6.320122 -0.625439 -26.924189 -3.827599 -4.811275 -51.144196 -2.522025 -13.708525 -7.363475 -3.720938 18.141153 -14.052739 -3.242677 5e-06 -18.78727 -1e-06 -0.429711 -8.456044 2.555503 0.0 -1e-06 -1e-06 -15.923536 -20.094482 -5.473585 30.41921 -7.190825 1.735928 4e-06 -8.162925 -1e-06 -1.861902 -22.861467 -6.167942 1e-06 -2e-06 -1e-06 174.445679 -2.831764 -8.580858 14.375409 -0.023588 0.030151 -77.485367 -3.119368 -5.683759 -6.562429 1.600479 2.110756 -0.999999 -0.0 0.0 -4.535724 -6.324551 -9.519597 14.454491 -0.004106 0.07251 -78.055168 -1.990465 -7.010532 -6.593508 0.745881 1.647904 -1.000002 0.0 0.0 
0.0 0.0 0.0 0.0 -0.0 0.0 2.619457 100.127647 0.420431 90.684914 -0.266477 90.998611 -2.316674 0.632096 0.118036 -11.619553 -0.286767 0.061244 16.893911 -0.150867 -2.36031 15.867236 -2.953988 2.314134 -2.406629 -0.673325 -0.308944 -25.823805 -1.09507 -1.872022 6e-06 0.0 -0.0 -0.015372 0.025934 0.006852 0.054026 0.083725 0.008046 0.064415 -0.04146 0.013215 -133.728729 -73.396049 150.864044 21.917826 -37.535957 -25.659834 63.103313 0.758798 -0.382363 -7.527842 17.343781 -71.214539 17.636625 -26.322725 52.411182 -19.46666 -14.395598 29.410381 -1e-06 -8.77482 -1e-06 16.80282 -16.708321 5.526034 -0.609774 -1.795653 -3.889327 -4.807089 -11.046805 -2.937851 5e-06 -20.976011 1e-06 -5.019969 -25.033548 -4.031881 6e-06 0.0 -0.0 -10.634532 -5.686971 -3.565588 10.573273 -17.922945 -3.1139 3e-06 -13.821205 1e-06 -0.501777 -31.181498 -4.027014 -11.310176 -59.898617 7.192077 -13.98271 -7.150193 -2.875044 13.772727 -8.401489 -3.21824 0.347733 -34.211536 0.771654 -0.963028 -17.733366 2.621019 -1e-06 2e-06 0.0 -17.346413 -20.095209 -4.201781 21.757557 -1.638376 3.86643 2e-06 -6.338823 2e-06 -1.697589 -22.591742 -6.194005 0.0 -4e-06 -1e-06 58.548241 -80.837387 138.361679 32.299099 -51.497852 -37.04327 68.129761 -0.93938 0.60852 0.938626 15.546765 -70.867172 22.18211 -20.375891 49.933315 -16.701811 -16.743528 28.476528 -4e-06 -12.690598 3e-06 15.984421 -16.945595 2.954254 -0.105919 -1.513855 -4.27588 -5.03904 -5.612872 -2.953554 4e-06 -11.02052 -1e-06 -6.111297 -15.89533 -3.84047 0.0 -0.0 -1e-06 -10.283367 -5.680286 -4.341836 11.028293 -11.302404 -2.372635 -1.384268 -14.238577 -6.320121 -0.62544 -26.924187 -3.827596 -4.765691 -51.022263 -2.550546 -13.708523 -7.363474 -3.720939 18.141146 -14.052738 -3.242676 7e-06 -18.787268 -1e-06 -0.429711 -8.456043 2.555506 0.0 1e-06 -1e-06 -15.923532 -20.094479 -5.473584 30.419205 -7.190824 1.735927 4e-06 -8.162924 -2e-06 -1.861903 -22.861467 -6.16794 -0.0 -0.0 -2e-06 174.372925 -2.847059 -8.611785 14.434568 -0.031612 0.033097 -77.516823 -3.127362 -5.651315 -6.523776 1.57738 2.106648 -0.999999 0.0 -0.0 -4.594579 -6.331046 -9.558088 14.495248 -0.007158 0.060648 -78.084892 -1.922334 -7.004428 -6.53885 0.739737 1.644448 -1.000002 0.0 0.0 
